<svg xmlns="http://www.w3.org/2000/svg" xmlns:xlink="http://www.w3.org/1999/xlink" version="1.1" x="0px" y="0px" viewBox="0 0 123.391 299.5675" style="enable-background:new 0 0 123.391 239.654;" xml:space="preserve"><g><ellipse transform="matrix(0.2268 -0.9739 0.9739 0.2268 54.2518 113.3364)" cx="98.507" cy="22.5" rx="22.494" ry="22.495"/><path d="M71.465,79.664l0.36,1.109l2.118,6.526l4.461,13.745L82.1,112.43l6.974,21.485l2.068,6.372   c0.141,0.433,0.318,0.845,0.524,1.238c1.361,2.614,4.062,4.297,7.083,4.297c0.835,0,1.666-0.134,2.472-0.396   c3.311-1.074,5.435-4.119,5.519-7.416c0.023-0.881-0.092-1.778-0.379-2.663l-1.648-5.079L89.581,83.653l-0.472-1.455l-2.006-6.181   l-5.41-16.667c-1.074-3.311-4.131-5.534-7.607-5.534c-0.837,0-1.668,0.133-2.469,0.393c-4.197,1.363-6.504,5.887-5.142,10.079   L71.465,79.664z"/><path d="M1.174,207.856c2.898,6.208,10.242,8.912,16.47,6.101L6.48,191.631C0.758,194.775-1.627,201.854,1.174,207.856z"/><polygon points="30.527,180.362 22.575,184.073 38.44,200.775  "/><polygon points="20.007,185.724 22.133,211.87 37.865,204.528  "/><polygon points="9.181,190.324 18.962,209.886 17.072,186.641  "/><path d="M51.538,198.147c0.478-0.223,0.938-0.475,1.379-0.752v29.76c0,6.903,5.597,12.5,12.5,12.5c6.904,0,12.5-5.597,12.5-12.5   v-77.353c1.008-1.438,1.852-3.042,2.53-4.767l4.609,19.768c0.327,1.402,1.37,2.511,2.752,2.923l13.227,3.948l14.461,62.016   c0.43,1.845,2.075,3.092,3.892,3.092c0.301,0,0.606-0.034,0.911-0.105c2.153-0.504,3.489-2.654,2.987-4.805l-14.46-62.017   l10.116-9.391c1.057-0.98,1.501-2.435,1.174-3.838l-5.712-24.501c-0.001-0.003-0.001-0.006-0.002-0.009   c0-0.003-0.002-0.006-0.003-0.009l-11.995-51.444l3.773-0.88c2.153-0.5,3.49-2.651,2.988-4.802   c-0.503-2.153-2.653-3.49-4.804-2.988l-12.565,2.93c2.251-9.077,0.092-19.03-6.711-25.797c-7.852-7.87-22.356-5.024-29.737,9.791   c-10.037,20.433-15.058,43.921-13.742,68.3c0.331,7.186,2.83,13.744,6.43,18.855l-11.72,31.59l-3.065,1.43l9.057,23.363   L51.538,198.147z M70.997,52.307c5.254-1.704,10.894,1.172,12.599,6.425l5.462,16.829l1.244,3.834l1.234,3.802l3.077-0.717   l8.442,36.21l3.61,11.124l1.596,4.918c0.303,0.934,0.455,1.879,0.481,2.813c0.033,1.165-0.145,2.309-0.5,3.39l3.555,15.248   l-8.441,7.837l-11.035-3.293l-4.28-18.355l1.63-0.38c-0.16-0.351-0.309-0.709-0.431-1.084l-2.122-6.536l-0.895,0.209l-2.455-10.529   l-1.895-5.837l-9.886-30.458L69.67,80.61l-0.16-0.491l-4.938-15.213C62.867,59.654,65.745,54.012,70.997,52.307z"/></g><text x="0" y="254.654" fill="#000000" font-size="5px" font-weight="bold" font-family="'Helvetica Neue', Helvetica, Arial-Unicode, Arial, Sans-serif">Created by Gan Khoon Lay</text><text x="0" y="259.654" fill="#000000" font-size="5px" font-weight="bold" font-family="'Helvetica Neue', Helvetica, Arial-Unicode, Arial, Sans-serif">from the Noun Project</text></svg>